{"title":"Jahihooaeg 3 (open Season 3.)2010 estonian and english","uid":7885473,"size":1428564988,"categoryP":"video","categoryS":"movies","magnet":"?xt=urn:btih:0ebe125d6bce6f0528a3d5da6980da4af8dfc3f4&amp;dn=Jahihooaeg+3+%28open+Season+3.%292010+estonian+and+english&amp;tr=udp%3A%2F%2Ftracker.openbittorrent.com%3A80&amp;tr=udp%3A%2F%2Fopen.demonii.com%3A1337&amp;tr=udp%3A%2F%2Ftracker.coppersurfer.tk%3A6969&amp;tr=udp%3A%2F%2Fexodus.desync.com%3A6969","seeders":3,"leechers":0,"uploader":"Eestimaine","files":1,"time":1354606799,"description":"Video\nID                             : 0\nFormat                         : MPEG-4 Visual\nFormat profile                 : Advanced Simple@L5\nFormat settings, BVOP          : 1\nFormat settings, QPel          : No\nFormat settings, GMC           : No warppoints\nFormat settings, Matrix        : Default (H.263)\nCodec ID                       : XVID\nCodec ID/Hint                  : XviD\nDuration                       : 1h 11mn\nBit rate                       : 1 758 Kbps\nWidth                          : 720 pixels\nHeight                         : 400 pixels\nDisplay aspect ratio           : 16:9\nFrame rate                     : 25.000 fps\nColor space                    : YUV\nChroma subsampling             : 4:2:0\nBit depth                      : 8 bits\nScan type                      : Progressive\nCompression mode               : Lossy\nBits/(Pixel*Frame)             : 0.244\nStream size                    : 900 MiB (66%)\nWriting library                : XviD 73\n\nAudio #1\nID                             : 1\nFormat                         : AC-3\nFormat/Info                    : Audio Coding 3\nMode extension                 : CM (complete main)\nFormat settings, Endianness    : Big\nCodec ID                       : 2000\nDuration                       : 1h 11mn\nBit rate mode                  : Constant\nBit rate                       : 448 Kbps\nChannel(s)                     : 6 channels\nChannel positions              : Front: L C R, Side: L R, LFE\nSampling rate                  : 48.0 KHz\nBit depth                      : 16 bits\nCompression mode               : Lossy\nStream size                    : 229 MiB (17%)\nAlignment                      : Aligned on interleaves\nInterleave, duration           : 64 ms (1.60 video frames)\nInterleave, preload duration   : 192 ms\n\nAudio #2\nID                             : 2\nFormat                         : AC-3\nFormat/Info                    : Audio Coding 3\nMode extension                 : CM (complete main)\nFormat settings, Endianness    : Big\nCodec ID                       : 2000\nDuration                       : 1h 11mn\nBit rate mode                  : Constant\nBit rate                       : 448 Kbps\nChannel(s)                     : 6 channels\nChannel positions              : Front: L C R, Side: L R, LFE\nSampling rate                  : 48.0 KHz\nBit depth                      : 16 bits\nCompression mode               : Lossy\nStream size                    : 229 MiB (17%)\nAlignment                      : Aligned on interleaves\nInterleave, duration           : 64 ms (1.60 video frames)\nInterleave, preload duration   : 192 ms\nTitle                          : eng\n","torrent":{"xt":"urn:btih:0ebe125d6bce6f0528a3d5da6980da4af8dfc3f4","amp;dn":"Jahihooaeg+3+%28open+Season+3.%292010+estonian+and+english","amp;tr":["udp%3A%2F%2Ftracker.openbittorrent.com%3A80","udp%3A%2F%2Fopen.demonii.com%3A1337","udp%3A%2F%2Ftracker.coppersurfer.tk%3A6969","udp%3A%2F%2Fexodus.desync.com%3A6969"],"infoHash":"0ebe125d6bce6f0528a3d5da6980da4af8dfc3f4","infoHashBuffer":{"type":"Buffer","data":[14,190,18,93,107,206,111,5,40,163,213,218,105,128,218,74,248,223,195,244]},"announce":[],"urlList":[]}}